<svg width="600" height="400" viewBox="0 0 600 400" xmlns="http://www.w3.org/2000/svg"><mask id="satori_om-id"><rect x="0" y="0" width="80" height="23" fill="#fff"/></mask><path fill="red" d="M5.5 4.7L6.2 4.7Q6.1 4.9 6.1 5.0Q6.1 5.1 6.1 5.2Q6.1 5.4 6.1 5.5L6.1 5.5Q6.1 5.8 6.1 6.4Q6.0 7.1 6.0 7.9Q6 8.8 6.0 9.6Q6.0 10.5 6.0 11.2L6.0 11.2Q6.0 11.8 6.0 12.5Q6.0 13.1 6 13.8Q6.0 14.5 6.0 15.1Q6.0 15.7 6.0 16.1L6.0 16.1Q6.0 16.6 5.9 16.9Q5.8 17.2 5.5 17.3Q5.3 17.5 5.0 17.5L5.0 17.5Q4.6 17.5 4.1 17.3Q3.6 17.1 3.2 16.8Q2.7 16.5 2.4 16.1Q2.1 15.6 2.1 15.2L2.1 15.2Q2.1 14.6 2.6 13.9Q3.1 13.3 3.9 12.8Q4.7 12.2 5.6 11.9L5.6 11.9Q6.7 11.4 7.8 11.2Q8.9 10.9 9.9 10.9L9.9 10.9Q11.1 10.9 11.9 11.3Q12.7 11.7 13.1 12.3Q13.6 13.0 13.6 13.8L13.6 13.8Q13.6 14.8 13.1 15.5Q12.7 16.2 11.9 16.6Q11.2 17.0 10.3 17.2L10.3 17.2Q9.8 17.4 9.3 17.4Q8.8 17.4 8.4 17.4L8.4 17.4L8.2 16.9Q8.6 16.9 9.1 16.9Q9.6 16.9 10.0 16.8L10.0 16.8Q10.8 16.7 11.5 16.3Q12.2 15.9 12.6 15.3Q13.1 14.7 13.1 13.8L13.1 13.8Q13.1 13.0 12.6 12.5Q12.2 11.9 11.5 11.7Q10.8 11.4 9.9 11.4L9.9 11.4Q8.8 11.4 7.8 11.6Q6.8 11.9 5.7 12.3L5.7 12.3Q4.9 12.6 4.2 13.1Q3.5 13.6 3.0 14.2Q2.6 14.7 2.6 15.2L2.6 15.2Q2.6 15.5 2.8 15.9Q3.1 16.2 3.4 16.4Q3.8 16.7 4.2 16.8Q4.6 17.0 4.9 17.0L4.9 17.0Q5.2 17.0 5.4 16.7Q5.6 16.5 5.6 16.1L5.6 16.1Q5.6 15.6 5.6 14.7Q5.5 13.9 5.5 13.0Q5.5 12.0 5.5 11.2L5.5 11.2Q5.5 10.5 5.5 9.7Q5.5 8.8 5.6 7.9Q5.6 7.1 5.6 6.4Q5.6 5.8 5.6 5.6L5.6 5.6Q5.6 5.4 5.6 5.3Q5.6 5.1 5.6 5.0Q5.6 4.8 5.5 4.7L5.5 4.7ZM11.2 6.9L11.5 6.5Q12.1 6.8 12.7 7.3Q13.4 7.7 14.0 8.2Q14.6 8.6 14.9 9.0L14.9 9.0L14.6 9.4Q14.3 9.1 13.9 8.7Q13.5 8.4 13.0 8.1Q12.6 7.7 12.1 7.4Q11.6 7.1 11.2 6.9L11.2 6.9ZM2.2 8.4L2.2 7.9Q2.8 7.9 3.2 8.0Q3.6 8.0 4.0 8.0L4.0 8.0Q4.6 8.0 5.3 7.9Q6.0 7.9 6.8 7.8Q7.6 7.6 8.3 7.5Q9.1 7.3 9.6 7.1L9.6 7.1L9.7 7.7Q9.1 7.8 8.4 7.9Q7.6 8.1 6.8 8.2Q6.0 8.3 5.3 8.4Q4.6 8.4 4.0 8.4L4.0 8.4Q3.5 8.4 3.0 8.4Q2.6 8.4 2.2 8.4L2.2 8.4ZM22.5 8.7L22.5 8.2Q23.2 8.3 23.8 8.3Q24.4 8.3 25.1 8.3L25.1 8.3Q26.6 8.3 28.0 8.2Q29.4 8.1 30.5 7.9L30.5 7.9L30.5 8.4Q29.2 8.6 27.8 8.7Q26.5 8.8 25.1 8.8L25.1 8.8Q24.4 8.8 23.8 8.8Q23.2 8.7 22.5 8.7L22.5 8.7ZM27.0 5.2L27.6 5.2Q27.6 5.4 27.6 5.6Q27.5 5.8 27.5 6.1L27.5 6.1Q27.5 6.4 27.5 6.8Q27.5 7.3 27.5 7.8Q27.5 8.3 27.5 8.6L27.5 8.6Q27.5 9.4 27.5 10.2Q27.6 11.1 27.6 12.0Q27.6 12.9 27.7 13.8Q27.7 14.6 27.7 15.3L27.7 15.3Q27.7 15.6 27.6 16.0Q27.5 16.4 27.3 16.8Q27.0 17.1 26.5 17.3Q26.1 17.6 25.3 17.6L25.3 17.6Q23.8 17.6 23.0 17.0Q22.3 16.5 22.3 15.6L22.3 15.6Q22.3 15.0 22.6 14.6Q22.9 14.1 23.6 13.8Q24.3 13.5 25.3 13.5L25.3 13.5Q26.2 13.5 27.0 13.7Q27.8 13.9 28.5 14.3Q29.2 14.6 29.8 15.1Q30.4 15.5 30.9 16.0L30.9 16.0L30.6 16.4Q29.9 15.7 29.1 15.2Q28.2 14.6 27.3 14.3Q26.4 13.9 25.2 13.9L25.2 13.9Q24.1 13.9 23.4 14.4Q22.7 14.8 22.7 15.5L22.7 15.5Q22.7 16.3 23.4 16.7Q24.0 17.1 25.1 17.1L25.1 17.1Q26.0 17.1 26.4 16.9Q26.9 16.6 27.1 16.1Q27.3 15.7 27.3 15.1L27.3 15.1Q27.3 14.6 27.2 13.9Q27.2 13.1 27.2 12.1Q27.1 11.2 27.1 10.3Q27.0 9.4 27.0 8.7L27.0 8.7Q27.0 7.9 27.0 7.2Q27.0 6.6 27.1 6.1L27.1 6.1Q27.1 5.9 27.1 5.6Q27.1 5.4 27.0 5.2L27.0 5.2ZM19.0 5.1L19.6 5.2Q19.6 5.3 19.6 5.4Q19.5 5.5 19.5 5.7Q19.5 5.8 19.5 5.9L19.5 5.9Q19.3 6.5 19.2 7.2Q19.1 7.8 19.0 8.5Q18.9 9.3 18.8 10.0Q18.7 10.7 18.7 11.4Q18.6 12.0 18.6 12.6L18.6 12.6Q18.6 13.6 18.7 14.3Q18.8 15.1 18.9 16.1L18.9 16.1Q19.0 15.6 19.2 15.0Q19.4 14.5 19.6 13.9Q19.8 13.4 20 13.0L20 13.0L20.3 13.2Q20.2 13.7 19.9 14.3Q19.7 14.9 19.5 15.5Q19.3 16.1 19.2 16.5L19.2 16.5Q19.2 16.6 19.1 16.8Q19.1 17.0 19.1 17.2L19.1 17.2Q19.2 17.3 19.2 17.4Q19.2 17.5 19.2 17.6L19.2 17.6L18.8 17.7Q18.5 16.8 18.4 15.5Q18.2 14.3 18.2 12.7L18.2 12.7Q18.2 11.8 18.3 10.8Q18.4 9.9 18.5 8.9Q18.6 8.0 18.8 7.2Q18.9 6.4 19.0 5.9L19.0 5.9Q19.0 5.6 19.0 5.5Q19.0 5.3 19.0 5.1L19.0 5.1ZM39.6 5.0L40.2 5.0Q40.2 5.1 40.2 5.3Q40.1 5.6 40.1 5.9Q40.1 6.1 40.1 6.3L40.1 6.3Q40.1 6.8 40.1 7.7Q40.1 8.6 40.1 9.6L40.1 9.6Q40.1 10.2 40.1 11.0Q40.2 11.9 40.2 12.7Q40.2 13.6 40.3 14.4Q40.3 15.2 40.3 15.7L40.3 15.7Q40.3 16.2 40.1 16.5Q40.0 16.9 39.7 17.2Q39.4 17.5 38.9 17.6Q38.4 17.8 37.9 17.8L37.9 17.8Q36.8 17.8 36.0 17.6Q35.2 17.3 34.8 16.9Q34.4 16.4 34.4 15.7L34.4 15.7Q34.4 15.1 34.7 14.5Q35.1 14.0 35.9 13.7Q36.7 13.4 38.0 13.4L38.0 13.4Q39.2 13.4 40.2 13.7Q41.2 13.9 42.2 14.3Q43.1 14.8 43.9 15.3Q44.7 15.9 45.3 16.4L45.3 16.4L45.0 16.9Q44.4 16.3 43.7 15.7Q42.9 15.2 41.9 14.8Q41.0 14.3 40.0 14.1Q39.0 13.9 38.0 13.9L38.0 13.9Q36.5 13.9 35.6 14.4Q34.8 14.9 34.8 15.7L34.8 15.7Q34.8 16.4 35.6 16.9Q36.3 17.3 37.8 17.3L37.8 17.3Q38.8 17.3 39.3 16.9Q39.9 16.4 39.9 15.5L39.9 15.5Q39.9 15.1 39.8 14.3Q39.8 13.6 39.8 12.7Q39.7 11.9 39.7 11.1Q39.7 10.2 39.7 9.6L39.7 9.6Q39.7 9.1 39.7 8.5Q39.7 7.9 39.7 7.2Q39.7 6.6 39.7 6.3L39.7 6.3Q39.7 6.1 39.6 5.8Q39.6 5.6 39.6 5.3Q39.6 5.1 39.6 5.0L39.6 5.0ZM39.8 8.9L39.8 8.4Q40.2 8.4 40.9 8.4Q41.6 8.3 42.3 8.3Q43.0 8.3 43.8 8.2Q44.5 8.1 45.1 8.1L45.1 8.1L45.1 8.6Q44.5 8.6 43.8 8.7Q43.1 8.7 42.3 8.8Q41.6 8.8 40.9 8.8Q40.3 8.9 39.8 8.9L39.8 8.9ZM60.1 11.9L60.1 11.9Q60.1 11.1 59.7 10.5Q59.2 9.9 58.5 9.5Q57.8 9.2 56.9 9.2L56.9 9.2Q56.0 9.2 55.1 9.3Q54.3 9.5 53.6 9.7Q52.9 9.9 52.4 10.0L52.4 10.0Q52.0 10.1 51.7 10.2Q51.5 10.3 51.2 10.4L51.2 10.4L51.0 9.8Q51.3 9.7 51.6 9.7Q51.9 9.6 52.2 9.5L52.2 9.5Q52.8 9.4 53.5 9.2Q54.3 9.0 55.1 8.9Q56.0 8.7 56.9 8.7L56.9 8.7Q57.9 8.7 58.8 9.1Q59.6 9.5 60.1 10.2Q60.5 10.9 60.5 11.9L60.5 11.9Q60.5 13.2 60.0 14.2Q59.5 15.2 58.5 15.9Q57.6 16.7 56.4 17.1Q55.1 17.6 53.7 17.8L53.7 17.8L53.3 17.4Q54.8 17.2 56.0 16.8Q57.2 16.3 58.1 15.6Q59.1 15.0 59.6 14.0Q60.1 13.1 60.1 11.9ZM52.8 5.7L52.9 5.1Q53.6 5.3 54.4 5.4Q55.3 5.6 56.2 5.7Q57.2 5.8 58.0 5.8Q58.8 5.9 59.3 5.9L59.3 5.9L59.3 6.4Q58.6 6.4 57.8 6.3Q57.0 6.2 56.1 6.1Q55.2 6.0 54.3 5.9Q53.5 5.8 52.8 5.7L52.8 5.7ZM72.2 13.7L71.8 13.7L71.6 6.7L71.6 5.3L72.4 5.3L72.4 6.7L72.2 13.7ZM72 17.3L72 17.3Q71.8 17.3 71.6 17.1Q71.4 17.0 71.4 16.6L71.4 16.6Q71.4 16.3 71.6 16.1Q71.8 15.9 72 15.9L72 15.9Q72.2 15.9 72.4 16.1Q72.6 16.3 72.6 16.6L72.6 16.6Q72.6 17.0 72.4 17.1Q72.2 17.3 72 17.3Z "/></svg>