<svg width="600" height="400" viewBox="0 0 600 400" xmlns="http://www.w3.org/2000/svg"><mask id="satori_om-id"><rect x="0" y="0" width="40" height="23" fill="#fff"/></mask><path fill="red" d="M3.6 17.3L1.3 17.3L1.3 4.5L3.6 4.5L3.6 7.7L3.5 9.4Q4.0 8.9 4.7 8.5Q5.4 8.1 6.3 8.1L6.3 8.1Q7.8 8.1 8.4 9.1Q9.1 10.0 9.1 11.7L9.1 11.7L9.1 17.3L6.7 17.3L6.7 12.0Q6.7 11.0 6.4 10.5Q6.1 10.1 5.5 10.1L5.5 10.1Q4.9 10.1 4.5 10.4Q4.1 10.6 3.6 11.1L3.6 11.1L3.6 17.3ZM15.4 17.5L15.4 17.5Q14.2 17.5 13.2 17.0Q12.1 16.4 11.5 15.3Q10.9 14.3 10.9 12.8L10.9 12.8Q10.9 11.7 11.3 10.9Q11.6 10.0 12.2 9.4Q12.8 8.8 13.6 8.4Q14.3 8.1 15.1 8.1L15.1 8.1Q16.4 8.1 17.2 8.7Q18.0 9.2 18.4 10.2Q18.9 11.2 18.9 12.4L18.9 12.4Q18.9 12.7 18.8 13.0Q18.8 13.3 18.8 13.5L18.8 13.5L13.2 13.5Q13.3 14.2 13.7 14.7Q14 15.2 14.5 15.5Q15.1 15.7 15.7 15.7L15.7 15.7Q16.3 15.7 16.8 15.5Q17.2 15.4 17.7 15.1L17.7 15.1L18.5 16.5Q17.9 17.0 17.1 17.3Q16.2 17.5 15.4 17.5ZM13.2 11.9L13.2 11.9L16.8 11.9Q16.8 11.0 16.4 10.5Q16.0 9.9 15.2 9.9L15.2 9.9Q14.7 9.9 14.3 10.2Q13.9 10.4 13.6 10.8Q13.3 11.3 13.2 11.9ZM23.0 17.5L23.0 17.5Q22.2 17.5 21.7 17.2Q21.2 16.8 21.0 16.2Q20.8 15.6 20.8 14.8L20.8 14.8L20.8 4.5L23.2 4.5L23.2 14.9Q23.2 15.3 23.3 15.4Q23.5 15.6 23.6 15.6L23.6 15.6Q23.7 15.6 23.8 15.6Q23.8 15.6 23.9 15.6L23.9 15.6L24.2 17.3Q24.0 17.4 23.7 17.5Q23.4 17.5 23.0 17.5ZM28.1 17.5L28.1 17.5Q27.2 17.5 26.8 17.2Q26.3 16.8 26.1 16.2Q25.8 15.6 25.8 14.8L25.8 14.8L25.8 4.5L28.2 4.5L28.2 14.9Q28.2 15.3 28.3 15.4Q28.5 15.6 28.7 15.6L28.7 15.6Q28.7 15.6 28.8 15.6Q28.9 15.6 29.0 15.6L29.0 15.6L29.3 17.3Q29.1 17.4 28.8 17.5Q28.5 17.5 28.1 17.5ZM34.6 17.5L34.6 17.5Q33.5 17.5 32.5 17.0Q31.5 16.4 30.9 15.4Q30.3 14.3 30.3 12.8L30.3 12.8Q30.3 11.3 30.9 10.3Q31.5 9.2 32.5 8.7Q33.5 8.1 34.6 8.1L34.6 8.1Q35.5 8.1 36.2 8.4Q37.0 8.8 37.6 9.4Q38.2 10.0 38.6 10.8Q38.9 11.7 38.9 12.8L38.9 12.8Q38.9 14.3 38.3 15.4Q37.7 16.4 36.7 17.0Q35.7 17.5 34.6 17.5ZM34.6 15.6L34.6 15.6Q35.2 15.6 35.7 15.3Q36.1 14.9 36.3 14.3Q36.5 13.7 36.5 12.8L36.5 12.8Q36.5 12.0 36.3 11.3Q36.1 10.7 35.7 10.4Q35.2 10.0 34.6 10.0L34.6 10.0Q34.0 10.0 33.6 10.4Q33.2 10.7 33.0 11.3Q32.7 12.0 32.7 12.8L32.7 12.8Q32.7 13.7 33.0 14.3Q33.2 14.9 33.6 15.3Q34.0 15.6 34.6 15.6Z "/></svg>